_________________________  Visit us at _________________________
  
http://p2pdl.com  ____________________________  http://p2pdl.com

 
http://www.shotpix.com/images/16889536594796930734.jpg

Will.i.am - Scream And Shout (Remix) [Ft. Britney Spears, Hit Boy, Waka Flocka Flame, Lil Wayne & Diddy] 2013 M4A+MP4 (1080p) x264 [VX] [P2PDL]

                        1080p Full HD MP4 Video
                                  +
                        128 Kbps/VBR M4A Audio

General
Complete name                  : Will.i.am Ft. VA - Scream And Shout (Remix) (1080p) x264 [VX] [P2PDL].mp4
Format                         : MPEG-4
Format profile                 : Base Media / Version 2
Codec ID                       : mp42
File size                      : 59.2 MiB
Duration                       : 5mn 47s

Video
ID                             : 1
Format                         : AVC
Format/Info                    : Advanced Video Codec
Format profile                 : High@L4.0
Format settings, CABAC         : Yes
Format settings, ReFrames      : 3 frames
Codec ID/Info                  : Advanced Video Coding
Duration                       : 5mn 47s
Bit rate mode                  : Variable
Bit rate                       : 1 300 Kbps
Width                          : 1 920 pixels
Height                         : 1 080 pixels
Display aspect ratio           : 16:9
Frame rate mode                : Variable
Frame rate                     : 23.976 fps
Bit depth                      : 8 bits
Stream size                    : 53.8 MiB (91%)
Writing library                : x264 core 129

Audio
ID                             : 2
Format                         : AAC
Format/Info                    : Advanced Audio Codec
Format profile                 : LC
Codec ID                       : 40
Duration                       : 5mn 47s
Bit rate mode                  : Variable
Bit rate                       : 125 Kbps
Maximum bit rate               : 153 Kbps
Channel(s)                     : 2 channels
Channel positions              : Front: L R
Sampling rate                  : 48.0 KHz
Stream size                    : 5.16 MiB (9%)

Subtitles                      : No

Screens: 
http://www.shotpix.com/images/77123528560542085647.jpg
------------------------------------------------------------------------

Notes:

* Recommended to use latest version VLC Media Player.
* Install shark007 codecs in case of any kind of problem in playback (For non-VLC Media Player users).
* Alternatively, install Core AVC codecs, the fastest decoder that there is coupled with Community Center Codec Pack and play on Windows Media Player Classic.

Greets to: VYTO, a2zRG, MusiK_KinG, Kuroyukihime, Caveman, Ash968, Neon, TwentyForty, Masta, TorDigger and staff members at ExtraTorrent, TPB, H33T, KAT, 1337x, PublicHD, Ahashare, TorrentMafia, Limetorrents, BTScene, P2PDL, and all others

Encoder Notes: Looking For Early Access To Anything You Can Provide DVDScr, R5, DVDRips, BluRay, Direct Audio, Early Music
Releases, Seedboxes, Links, Dedicated Servers anything u can provide, Advance / Promo CDs/DVDs. If You Got anything to
offer contact me at "prg@hush.com".